# xmcd CD database file
#
# Track frame offsets:
#	150
#	26998
#	52577
#	91431
#	115518
#	140504
#	167372
#	199392
#	218360
#
# Disc length: 3052 seconds
#
# Revision: 0
# Processed by: cddbd v1.5.2PL0 Copyright (c) Steve Scherf et al.
# Submitted via: CDex 1.70beta2
#
DISCID=6f0bea09
DTITLE=Mezquida, Bodilsen, Andersen - Pieris
DYEAR=2018
DGENRE=Jazz
TTITLE0=Hidden Beauty
TTITLE1=Nolstalgias
TTITLE2=Florencia
TTITLE3=Joy
TTITLE4=Piensa en mi
TTITLE5=A Special One
TTITLE6=Min Sommerfugl - La mia farfalla
TTITLE7=Peace
TTITLE8=Coral de la flor d'estiu
EXTD=YEAR: 2018
EXTT0=
EXTT1=
EXTT2=
EXTT3=
EXTT4=
EXTT5=
EXTT6=
EXTT7=
EXTT8=
PLAYORDER=
